<svg xmlns="http://www.w3.org/2000/svg" width="45.983" height="34.899" viewBox="0 0 45.983 34.899">
  <g id="icon-developer" transform="translate(-135 -161.998)">
    <path id="Path_1" data-name="Path 1" d="M135,198.137q5.923-5.947,11.849-11.889c.643-.643,1.093-.611,1.772.044s1.36,1.348,2.031,2.033c.763.779.767,1.187-.006,1.964q-3.865,3.88-7.745,7.753c-.125.125-.241.259-.647.7a3.531,3.531,0,0,1,.89.472q3.737,3.692,7.44,7.422c.854.856.852,1.241.01,2.095-.651.661-1.3,1.322-1.971,1.967s-1.125.689-1.77.046q-5.935-5.932-11.849-11.889C135,198.617,135,198.378,135,198.137Z" transform="translate(0 -19.048)" fill="#00cf82"/>
    <path id="Path_2" data-name="Path 2" d="M293.373,198.682l-3.5-3.491q-2.351-2.348-4.7-4.7c-.886-.888-.88-1.253.018-2.159.653-.659,1.312-1.312,1.966-1.969a1.077,1.077,0,0,1,1.721-.014q5.717,5.711,11.429,11.427a1.069,1.069,0,0,1-.04,1.715q-5.684,5.678-11.367,11.361c-.653.649-1.093.627-1.77-.024-.647-.623-1.275-1.265-1.908-1.9-.946-.952-.95-1.288-.018-2.222q3.647-3.653,7.3-7.3C292.739,199.17,293.012,198.978,293.373,198.682Z" transform="translate(-119.736 -19.165)" fill="#00cf82"/>
    <path id="Path_3" data-name="Path 3" d="M227.4,162a21.826,21.826,0,0,1,2.167.711c.663.285.574.886.4,1.474q-1.356,4.555-2.7,9.115-3.3,11.181-6.611,22.359c-.38,1.282-.663,1.42-1.936,1.077-2.561-.689-2.432-.765-1.713-3.182q4.508-15.171,8.973-30.359C226.173,162.572,226.332,161.955,227.4,162Z" transform="translate(-65.321)" fill="#00cf82"/>
  </g>
</svg>
