<svg xmlns="http://www.w3.org/2000/svg" width="45.471" height="45.449" viewBox="0 0 45.471 45.449">
  <g id="icon-support" transform="translate(-222.857 -196.01)">
    <path id="Path_15" data-name="Path 15" d="M268.329,217.19v3.2c-.052.287-.125.574-.157.866a1.279,1.279,0,0,1-1.4,1.289,4.937,4.937,0,0,0-4.853,3.115,4.881,4.881,0,0,0,1.148,5.568,1.284,1.284,0,0,1,.031,2.035q-1.558,1.644-3.22,3.188c-.783.725-1.315.7-2.1-.016a5.017,5.017,0,0,0-5.51-1.127,4.89,4.89,0,0,0-3.136,4.655c-.063,1.054-.412,1.435-1.487,1.466-1.477.042-2.959.031-4.441-.016-.991-.031-1.393-.459-1.419-1.44a4.915,4.915,0,0,0-3.073-4.785,5.015,5.015,0,0,0-5.594,1.117,1.331,1.331,0,0,1-2.108.01c-.934-.866-1.847-1.758-2.708-2.693-1.221-1.325-1.205-1.529-.052-2.9a5.027,5.027,0,0,0-2.468-8.083,15.826,15.826,0,0,0-1.581-.245,1.351,1.351,0,0,1-1.3-1.419c-.01-1.362-.073-2.724-.01-4.086.073-1.6.224-1.706,1.821-1.894a5,5,0,0,0,4.514-3.23,4.894,4.894,0,0,0-1.143-5.338,1.363,1.363,0,0,1,.01-2.239c.913-.971,1.852-1.92,2.833-2.823,1.117-1.033,1.466-1.007,2.64.01a5.008,5.008,0,0,0,8.14-2.27,7.829,7.829,0,0,0,.245-1.487c.1-1.028.4-1.357,1.4-1.477a5.771,5.771,0,0,0,.595-.136h3.2a2.432,2.432,0,0,0,.423.12c1.5.177,1.628.344,1.748,1.868a4.845,4.845,0,0,0,3.079,4.409,4.961,4.961,0,0,0,5.38-.971c1.065-.9,1.5-.934,2.5.021.924.871,1.821,1.779,2.682,2.713.986,1.075.96,1.445-.01,2.567a5.006,5.006,0,0,0,3.225,8.349c1.586.157,1.774.329,2.056,1.863A.991.991,0,0,0,268.329,217.19Zm-11.558,8.292a13.1,13.1,0,1,0-20.434,2.677c5.056,4.926,12.382,4.472,16.166,1.607-1.7-1.7-3.407-3.387-5.072-5.114a1.242,1.242,0,0,0-1.466-.37,8,8,0,0,1-10.144-9.387,1.493,1.493,0,0,1,.736-.971c.266-.1.777.183,1.049.433,1.044.971,2.051,1.978,3.032,3.006a1.613,1.613,0,0,0,1.56.574c2.927-.454,2.28.005,2.766-2.656a1.632,1.632,0,0,0-.537-1.659c-1.064-.986-2.082-2.03-3.084-3.079-.741-.772-.527-1.524.511-1.738a8.048,8.048,0,0,1,9.413,10.394,1.032,1.032,0,0,0,.12.851C253.134,221.865,254.924,223.634,256.771,225.482Z" transform="translate(0 0)" fill="#00cf82"/>
  </g>
</svg>
