<svg xmlns="http://www.w3.org/2000/svg" width="45.983" height="46.01" viewBox="0 0 45.983 46.01">
  <g id="icon-designer" transform="translate(-207 -195.296)">
    <path id="Path_4" data-name="Path 4" d="M236.468,267.1a4.512,4.512,0,0,1-3.008-2.7h12.823a4.385,4.385,0,0,1-2.989,2.7Z" transform="translate(-9.877 -25.795)" fill="#00cf82"/>
    <path id="Path_5" data-name="Path 5" d="M207,222.229a1.745,1.745,0,0,1,1.83-.99c.746.025,1.492-.019,2.237.038a1.3,1.3,0,0,1,1.3,1.316,1.268,1.268,0,0,1-1.3,1.316,12.314,12.314,0,0,1-2.676-.025c-.5-.088-.934-.608-1.391-.928Z" transform="translate(0 -9.683)" fill="#00cf82"/>
    <path id="Path_6" data-name="Path 6" d="M239.474,227.731v-1.059c0-3.2-.038-6.405.019-9.608a6.49,6.49,0,0,0-.7-3.1c-1.122-2.244-2.237-4.5-3.34-6.75a1.449,1.449,0,0,0-2.739.006c-1.235,2.557-2.5,5.1-3.7,7.671a3.737,3.737,0,0,0-.3,1.554c-.025,3.71-.013,7.42-.013,11.281-1.31,0-2.576.019-3.848-.019-.15-.006-.395-.282-.426-.457a11.891,11.891,0,0,0-2.858-5.509,15.974,15.974,0,0,1-3.622-11.168,16.166,16.166,0,0,1,32.282,1.8,15.366,15.366,0,0,1-3.4,9.094,13.013,13.013,0,0,0-3.077,5.8.727.727,0,0,1-.52.451C242.005,227.75,240.783,227.731,239.474,227.731Z" transform="translate(-4.077 0)" fill="#00cf82"/>
    <path id="Path_7" data-name="Path 7" d="M247.468,251.48c.282,2.676-.733,4.512-2.833,5.108a6.7,6.7,0,0,1-1.774.2c-3.171.019-6.342.013-9.52.006-3.322-.006-4.964-1.88-4.619-5.315Z" transform="translate(-8.092 -20.973)" fill="#00cf82"/>
    <path id="Path_8" data-name="Path 8" d="M244.795,231.48v9.708H239.48V231.48Z" transform="translate(-12.124 -13.507)" fill="#00cf82"/>
    <path id="Path_9" data-name="Path 9" d="M274.482,221.2c.558.031,1.1.025,1.629.1a1.178,1.178,0,0,1,1.078,1.235,1.155,1.155,0,0,1-1.084,1.31,23.922,23.922,0,0,1-3.215-.006,1.145,1.145,0,0,1-1.04-1.26,1.184,1.184,0,0,1,1.04-1.266A13.889,13.889,0,0,1,274.482,221.2Z" transform="translate(-24.207 -9.669)" fill="#00cf82"/>
    <path id="Path_10" data-name="Path 10" d="M212.408,210.02c.019,1.059-1.072,1.843-1.849,1.266a13.256,13.256,0,0,1-2.507-2.519,1.542,1.542,0,0,1,.226-1.423c.244-.295,1.084-.514,1.316-.326a32.111,32.111,0,0,1,2.745,2.645C212.42,209.745,212.395,209.939,212.408,210.02Z" transform="translate(-0.356 -4.35)" fill="#00cf82"/>
    <path id="Path_11" data-name="Path 11" d="M273.562,211.45c-.276-.207-.783-.414-.953-.777a1.493,1.493,0,0,1,.031-1.31,18.958,18.958,0,0,1,2.25-2.294,1.034,1.034,0,0,1,1.535.075c.295.389.577,1.228.376,1.479a27.513,27.513,0,0,1-2.62,2.651C274.083,211.362,273.895,211.362,273.562,211.45Z" transform="translate(-24.441 -4.281)" fill="#00cf82"/>
    <path id="Path_12" data-name="Path 12" d="M208.988,237.268c-.282-.232-.783-.451-.94-.827a1.549,1.549,0,0,1,.088-1.316,18.386,18.386,0,0,1,2.193-2.225,1.038,1.038,0,0,1,1.535.038c.307.382.608,1.216.414,1.467a26.125,26.125,0,0,1-2.6,2.67C209.565,237.18,209.339,237.174,208.988,237.268Z" transform="translate(-0.352 -13.917)" fill="#00cf82"/>
    <path id="Path_13" data-name="Path 13" d="M275.655,237.314a3.43,3.43,0,0,1-.871-.389,29.463,29.463,0,0,1-2.206-2.219,1.3,1.3,0,0,1,1.8-1.811,17.29,17.29,0,0,1,2.25,2.294,1.493,1.493,0,0,1,.038,1.31C276.489,236.863,275.981,237.064,275.655,237.314Z" transform="translate(-24.371 -13.926)" fill="#00cf82"/>
    <path id="Path_14" data-name="Path 14" d="M244.6,224.028a5.621,5.621,0,0,1-4.425-.006c.708-1.423,1.41-2.82,2.206-4.412C243.176,221.177,243.878,222.568,244.6,224.028Z" transform="translate(-12.386 -9.076)" fill="#00cf82"/>
  </g>
</svg>
